<?xml version="1.0" standalone="no"?>
<!DOCTYPE svg PUBLIC "-//W3C//DTD SVG 20010904//EN"
 "http://www.w3.org/TR/2001/REC-SVG-20010904/DTD/svg10.dtd">
<svg version="1.0" xmlns="http://www.w3.org/2000/svg"
 width="229.000000pt" height="220.000000pt" viewBox="0 0 229.000000 220.000000"
 preserveAspectRatio="xMidYMid meet">

<g transform="translate(0.000000,220.000000) scale(0.100000,-0.100000)"
fill="#000000" stroke="none">
<path d="M1367 1959 c7 -7 15 -10 18 -7 3 3 -2 9 -12 12 -14 6 -15 5 -6 -5z"/>
<path d="M1424 1898 c-7 -11 18 -10 36 2 11 7 10 9 -8 7 -13 -1 -26 -5 -28 -9z"/>
<path d="M1523 1845 c1 -13 8 -21 21 -22 12 -1 36 -4 54 -7 37 -6 41 -1 11 15
-17 9 -20 8 -14 -2 6 -9 3 -11 -9 -6 -10 4 -21 7 -24 7 -4 0 -1 4 7 9 9 6 10
11 2 15 -6 4 -11 2 -11 -3 0 -15 -27 -14 -33 2 -3 6 -5 3 -4 -8z"/>
<path d="M1532 1808 c-7 -7 -12 -22 -12 -35 0 -20 -5 -23 -40 -23 -29 0 -40
-4 -40 -15 0 -8 -6 -15 -14 -15 -9 0 -15 -15 -18 -45 -3 -44 -2 -46 36 -65 27
-13 42 -16 47 -9 5 8 8 8 13 0 4 -6 2 -11 -5 -11 -7 0 -5 -8 6 -20 10 -11 20
-18 23 -15 3 2 13 -7 24 -20 11 -14 24 -22 30 -19 7 4 8 2 4 -4 -4 -6 1 -19
11 -29 26 -26 53 -70 53 -85 0 -13 -228 -148 -250 -148 -6 0 -25 16 -42 36
-42 47 -114 82 -185 90 -42 4 -54 3 -43 -5 20 -14 5 -14 -19 0 -13 9 -23 9
-37 1 -19 -11 -18 -11 1 -12 17 -1 17 -3 -5 -11 -17 -7 -26 -7 -28 0 -5 15
-58 -14 -96 -54 -27 -27 -32 -39 -28 -66 3 -21 1 -30 -6 -25 -6 4 -9 14 -6 24
5 14 3 14 -10 -2 -18 -22 -21 -40 -6 -31 6 3 10 -1 10 -9 0 -9 -6 -16 -14 -16
-16 0 -26 -49 -20 -95 7 -58 21 -100 31 -98 6 1 9 -6 6 -16 -13 -49 119 -139
216 -148 91 -9 161 17 229 82 31 30 57 55 59 55 2 0 232 -130 242 -137 11 -8
-30 -63 -89 -123 -113 -114 -249 -170 -415 -170 -212 0 -362 83 -498 274 -12
16 -17 17 -38 7 -22 -11 -22 -11 -6 3 18 14 18 16 -3 63 -13 26 -24 57 -26 68
-1 11 -6 41 -10 68 -7 52 -10 54 -42 31 -17 -12 -22 -25 -22 -60 0 -55 -17
-74 -64 -74 -33 0 -36 -2 -36 -30 0 -28 -2 -30 -39 -30 -40 0 -40 0 -44 43 -3
34 -4 30 -5 -19 -1 -34 -5 -90 -9 -125 -6 -50 -9 -20 -13 141 l-6 205 -2 -212
c-2 -203 1 -248 18 -238 4 2 5 -6 3 -18 -3 -14 4 -30 19 -44 13 -11 145 -91
293 -176 149 -85 318 -182 376 -216 127 -73 171 -79 254 -33 38 22 515 296
697 401 14 8 38 33 52 55 l26 40 0 457 0 457 -36 41 c-20 22 -53 49 -73 59
-20 11 -52 28 -71 39 -19 11 -62 35 -95 53 -33 19 -63 38 -66 43 -4 5 -31 10
-61 12 -31 1 -60 5 -65 8 -5 3 -15 1 -21 -5z m242 -83 c11 -8 18 -17 15 -19
-2 -2 -15 4 -28 15 -27 22 -15 26 13 4z m63 -41 c-3 -3 -12 -4 -19 -1 -8 3 -5
6 6 6 11 1 17 -2 13 -5z m-357 -54 c0 -5 -7 -10 -15 -10 -8 0 -15 5 -15 10 0
6 7 10 15 10 8 0 15 -4 15 -10z m-267 -277 c-7 -2 -19 -2 -25 0 -7 3 -2 5 12
5 14 0 19 -2 13 -5z m-84 -15 c-6 -7 -33 -14 -58 -14 l-46 -2 45 13 c62 18 74
18 59 3z m-109 -8 c0 -5 -5 -10 -11 -10 -5 0 -7 5 -4 10 3 6 8 10 11 10 2 0 4
-4 4 -10z m-60 -60 c0 -5 -2 -10 -4 -10 -3 0 -8 5 -11 10 -3 6 -1 10 4 10 6 0
11 -4 11 -10z m608 -43 c3 -32 7 -37 28 -37 20 0 24 5 24 29 0 31 21 56 42 49
8 -3 12 -18 10 -41 -3 -32 -1 -37 17 -37 16 0 21 -6 21 -25 0 -20 -5 -25 -25
-25 -21 0 -25 -5 -25 -30 0 -23 4 -30 20 -30 15 0 20 -7 20 -25 0 -20 -5 -25
-24 -25 -21 0 -25 -5 -28 -37 -2 -31 -7 -39 -25 -41 -21 -3 -23 1 -23 37 0 36
-3 41 -24 41 -20 0 -24 -6 -30 -40 -5 -35 -10 -40 -32 -40 -25 0 -25 2 -19 40
6 36 5 40 -14 40 -16 0 -21 6 -21 25 0 18 5 25 19 25 19 0 31 18 31 46 0 8 -9
14 -20 14 -15 0 -20 7 -20 25 0 20 5 25 25 25 22 0 25 4 25 33 0 38 7 49 30
45 9 -2 16 -16 18 -41z m-620 15 c2 -7 -1 -12 -8 -12 -6 0 -9 4 -6 9 4 5 1 12
-4 14 -6 3 -5 4 2 3 6 -1 14 -8 16 -14z m-25 -67 c-3 -9 -8 -14 -10 -11 -3 3
-2 9 2 15 9 16 15 13 8 -4z m24 -7 c-3 -8 -6 -5 -6 6 -1 11 2 17 5 13 3 -3 4
-12 1 -19z m-417 -412 c0 -2 -7 -7 -16 -10 -8 -3 -12 -2 -9 4 6 10 25 14 25 6z
m-90 -21 c0 -2 -10 -10 -22 -16 -21 -11 -22 -11 -9 4 13 16 31 23 31 12z
m-118 -77 c-7 -7 -12 -8 -12 -2 0 14 12 26 19 19 2 -3 -1 -11 -7 -17z m43 2
c-3 -5 -12 -10 -18 -10 -7 0 -6 4 3 10 19 12 23 12 15 0z"/>
<path d="M1558 1110 c-4 -27 -2 -30 24 -30 24 0 28 4 28 30 0 25 -4 30 -24 30
-19 0 -25 -6 -28 -30z"/>
<path d="M1283 1713 c15 -2 27 -8 27 -13 0 -5 8 -6 17 -3 15 6 15 7 -3 14 -10
4 -30 7 -44 7 -23 -1 -23 -1 3 -5z"/>
<path d="M1163 1693 c9 -2 23 -2 30 0 6 3 -1 5 -18 5 -16 0 -22 -2 -12 -5z"/>
<path d="M1320 1681 l-25 -7 29 -8 c15 -4 31 -5 34 -1 3 3 -1 5 -9 5 -11 0
-11 2 1 10 17 11 7 11 -30 1z"/>
<path d="M561 1234 c0 -11 3 -14 6 -6 3 7 2 16 -1 19 -3 4 -6 -2 -5 -13z"/>
<path d="M442 954 c-30 -21 -28 -34 8 -34 25 0 30 4 30 25 0 29 -7 31 -38 9z"/>
</g>
</svg>
